<svg width="1123" height="164" viewBox="0 0 1123 164" fill="none" xmlns="http://www.w3.org/2000/svg">
<path fill-rule="evenodd" clip-rule="evenodd" d="M0.999871 7L1122 0L1122.14 22.9996L1.14349 29.9996L0.999871 7ZM3.39998 121V43.72H25.96V103.72H60.76V121H3.39998ZM102.707 122.2C89.9065 122.2 80.1065 119.08 73.3065 112.84C66.5865 106.6 63.2265 96.52 63.2265 82.6C63.2265 73 64.7465 65.28 67.7865 59.44C70.8265 53.52 75.2665 49.24 81.1066 46.6C87.0266 43.88 94.2265 42.52 102.707 42.52C111.187 42.52 118.347 43.88 124.187 46.6C130.107 49.24 134.587 53.52 137.627 59.44C140.667 65.28 142.187 73 142.187 82.6C142.187 96.52 138.787 106.6 131.987 112.84C125.187 119.08 115.427 122.2 102.707 122.2ZM102.707 103C108.467 103 112.627 101.4 115.187 98.2C117.827 94.92 119.147 89.72 119.147 82.6C119.147 75 117.827 69.64 115.187 66.52C112.627 63.32 108.467 61.72 102.707 61.72C96.9465 61.72 92.7466 63.32 90.1066 66.52C87.5465 69.64 86.2665 75 86.2665 82.6C86.2665 89.72 87.5465 94.92 90.1066 98.2C92.7466 101.4 96.9465 103 102.707 103ZM164.147 122.2C160.787 122.2 157.587 121.96 154.547 121.48C151.507 121.08 148.587 120.4 145.787 119.44V100.72C147.707 101.52 149.867 102.12 152.267 102.52C154.667 102.92 157.067 103.12 159.467 103.12C163.787 103.12 166.867 102.24 168.707 100.48C170.547 98.72 171.467 95.8 171.467 91.72V43.72H194.027V95.32C194.027 103.72 191.467 110.32 186.347 115.12C181.307 119.84 173.907 122.2 164.147 122.2ZM197.641 121L227.281 43.72H251.161L280.801 121H257.281L250.801 104.56H227.521L221.161 121H197.641ZM247.801 88.36L239.161 65.68L230.521 88.36H247.801ZM311.493 122.2C306.293 122.2 301.373 121.8 296.733 121C292.093 120.12 288.133 118.92 284.853 117.4V98.8C288.453 100.48 292.453 101.84 296.853 102.88C301.253 103.92 305.373 104.44 309.213 104.44C313.213 104.44 316.213 104.12 318.213 103.48C320.293 102.76 321.333 101.2 321.333 98.8C321.333 97.12 320.733 95.8 319.533 94.84C318.413 93.88 316.613 93 314.133 92.2C311.733 91.4 308.573 90.4 304.653 89.2C299.453 87.52 295.333 85.68 292.293 83.68C289.253 81.68 287.053 79.24 285.693 76.36C284.413 73.48 283.773 69.96 283.773 65.8C283.773 58.2 286.453 52.44 291.813 48.52C297.253 44.52 305.293 42.52 315.933 42.52C320.173 42.52 324.533 42.88 329.013 43.6C333.573 44.32 337.253 45.12 340.053 46V64.72C336.293 63.2 332.693 62.12 329.253 61.48C325.813 60.84 322.573 60.52 319.533 60.52C316.013 60.52 313.013 60.8 310.533 61.36C308.053 61.92 306.813 63.36 306.813 65.68C306.813 67.68 307.853 69.16 309.933 70.12C312.093 71 315.893 72.16 321.333 73.6C327.653 75.28 332.453 77.32 335.733 79.72C339.093 82.12 341.373 84.92 342.573 88.12C343.773 91.24 344.373 94.8 344.373 98.8C344.373 105.84 341.653 111.52 336.213 115.84C330.773 120.08 322.533 122.2 311.493 122.2ZM374.945 121L404.585 43.72H428.465L458.105 121H434.585L428.105 104.56H404.825L398.465 121H374.945ZM407.825 88.36H425.105L416.465 65.68L407.825 88.36ZM466.525 121V43.72H488.485L507.685 82.96L526.765 43.72H548.605V121H526.045V82.36L513.685 107.8H501.565L489.085 82.36V121H466.525ZM559.455 43.72H618.015V61H582.015V73.6H613.575V91.12H582.015V103.72H618.015V121H559.455V43.72ZM625.197 43.72H665.397C671.717 43.72 676.877 44.88 680.877 47.2C684.957 49.52 687.997 52.76 689.997 56.92C691.997 61 692.997 65.76 692.997 71.2C692.997 76.4 691.677 81 689.037 85C686.477 88.92 683.037 91.92 678.717 94C679.597 94.72 680.357 95.6 680.997 96.64C681.637 97.6 682.357 98.96 683.157 100.72L692.037 121H668.517L660.357 102.4C659.717 100.96 658.917 99.96 657.957 99.4C657.077 98.76 655.797 98.44 654.117 98.44H647.757V121H625.197V43.72ZM647.757 81.16H659.637C662.917 81.16 665.437 80.32 667.197 78.64C669.037 76.88 669.957 74.4 669.957 71.2C669.957 64.4 666.757 61 660.357 61H647.757V81.16ZM701.369 43.72H723.929V121H701.369V43.72ZM775.447 122.2C761.447 122.2 750.767 118.76 743.407 111.88C736.047 105 732.367 95.28 732.367 82.72C732.367 69.76 735.967 59.84 743.167 52.96C750.367 46 761.087 42.52 775.327 42.52C780.127 42.52 784.407 42.88 788.167 43.6C791.927 44.32 795.527 45.32 798.967 46.6V66.28C792.087 63.24 784.727 61.72 776.887 61.72C769.607 61.72 764.207 63.4 760.687 66.76C757.167 70.04 755.407 75.36 755.407 82.72C755.407 89.92 757.247 95.12 760.927 98.32C764.687 101.44 770.087 103 777.127 103C780.967 103 784.687 102.64 788.287 101.92C791.967 101.2 795.607 100.08 799.207 98.56V118.36C795.767 119.56 792.127 120.48 788.287 121.12C784.527 121.84 780.247 122.2 775.447 122.2ZM832.554 43.72H856.434L886.074 121H862.554L856.074 104.56H832.794L826.434 121H802.914L832.554 43.72ZM853.074 88.36L844.434 65.68L835.794 88.36H853.074ZM894.494 43.72H913.694L942.854 84.64V43.72H965.414V121H946.094L917.054 80.2V121H894.494V43.72ZM1013.25 122.2C1000.45 122.2 990.653 119.08 983.853 112.84C977.133 106.6 973.773 96.52 973.773 82.6C973.773 73 975.293 65.28 978.333 59.44C981.373 53.52 985.813 49.24 991.653 46.6C997.573 43.88 1004.77 42.52 1013.25 42.52C1021.73 42.52 1028.89 43.88 1034.73 46.6C1040.65 49.24 1045.13 53.52 1048.17 59.44C1051.21 65.28 1052.73 73 1052.73 82.6C1052.73 96.52 1049.33 106.6 1042.53 112.84C1035.73 119.08 1025.97 122.2 1013.25 122.2ZM1013.25 103C1019.01 103 1023.17 101.4 1025.73 98.2C1028.37 94.92 1029.69 89.72 1029.69 82.6C1029.69 75 1028.37 69.64 1025.73 66.52C1023.17 63.32 1019.01 61.72 1013.25 61.72C1007.49 61.72 1003.29 63.32 1000.65 66.52C998.093 69.64 996.813 75 996.813 82.6C996.813 89.72 998.093 94.92 1000.65 98.2C1003.29 101.4 1007.49 103 1013.25 103ZM1086.45 122.2C1081.25 122.2 1076.33 121.8 1071.69 121C1067.05 120.12 1063.09 118.92 1059.81 117.4V98.8C1063.41 100.48 1067.41 101.84 1071.81 102.88C1076.21 103.92 1080.33 104.44 1084.17 104.44C1088.17 104.44 1091.17 104.12 1093.17 103.48C1095.25 102.76 1096.29 101.2 1096.29 98.8C1096.29 97.12 1095.69 95.8 1094.49 94.84C1093.37 93.88 1091.57 93 1089.09 92.2C1086.69 91.4 1083.53 90.4 1079.61 89.2C1074.41 87.52 1070.29 85.68 1067.25 83.68C1064.21 81.68 1062.01 79.24 1060.65 76.36C1059.37 73.48 1058.73 69.96 1058.73 65.8C1058.73 58.2 1061.41 52.44 1066.77 48.52C1072.21 44.52 1080.25 42.52 1090.89 42.52C1095.13 42.52 1099.49 42.88 1103.97 43.6C1108.53 44.32 1112.21 45.12 1115.01 46V64.72C1111.25 63.2 1107.65 62.12 1104.21 61.48C1100.77 60.84 1097.53 60.52 1094.49 60.52C1090.97 60.52 1087.97 60.8 1085.49 61.36C1083.01 61.92 1081.77 63.36 1081.77 65.68C1081.77 67.68 1082.81 69.16 1084.89 70.12C1087.05 71 1090.85 72.16 1096.29 73.6C1102.61 75.28 1107.41 77.32 1110.69 79.72C1114.05 82.12 1116.33 84.92 1117.53 88.12C1118.73 91.24 1119.33 94.8 1119.33 98.8C1119.33 105.84 1116.61 111.52 1111.17 115.84C1105.73 120.08 1097.49 122.2 1086.45 122.2ZM1122 134L-0.000109486 141L0.143381 164L1122.14 157L1122 134Z" fill="white"/>
</svg>
