<svg width="29" height="23" viewBox="0 0 29 23" fill="none" xmlns="http://www.w3.org/2000/svg">
<path opacity="0.7" d="M20.7261 14.4544H19.4162L18.952 14.0996C20.5769 12.6016 21.5552 10.6568 21.5552 8.54124C21.5552 3.82385 16.7301 0 10.7776 0C4.82504 0 0 3.82385 0 8.54124C0 13.2586 4.82504 17.0825 10.7776 17.0825C13.4471 17.0825 15.9011 16.3072 17.7913 15.0194L18.239 15.3874V16.4255L26.5294 22.9825L29 21.0246L20.7261 14.4544ZM10.7776 14.4544C6.64894 14.4544 3.31618 11.8132 3.31618 8.54124C3.31618 5.26929 6.64894 2.62807 10.7776 2.62807C14.9062 2.62807 18.239 5.26929 18.239 8.54124C18.239 11.8132 14.9062 14.4544 10.7776 14.4544Z" fill="#EC5714"/>
</svg>
