<svg width="942" height="280" viewBox="0 0 942 280" fill="none" xmlns="http://www.w3.org/2000/svg">
<g filter="url(#filter0_d_25_16)">
<mask id="path-1-outside-1_25_16" maskUnits="userSpaceOnUse" x="4" y="0" width="934" height="272" fill="black">
<rect fill="white" x="4" width="934" height="272"/>
<path d="M260.088 136C260.088 208.349 203.88 267 134.544 267C65.2079 267 9 208.349 9 136C9 63.6507 65.2079 5 134.544 5C203.88 5 260.088 63.6507 260.088 136Z"/>
<path d="M366.059 204.207C357.491 204.207 349.385 203.485 341.741 202.041C334.096 200.453 327.572 198.288 322.168 195.545V161.983C328.099 165.015 334.689 167.469 341.938 169.345C349.188 171.222 355.976 172.16 362.302 172.16C368.892 172.16 373.835 171.583 377.13 170.428C380.557 169.129 382.271 166.314 382.271 161.983C382.271 158.952 381.282 156.57 379.305 154.838C377.46 153.106 374.494 151.518 370.408 150.074C366.454 148.631 361.248 146.826 354.789 144.661C346.222 141.63 339.434 138.31 334.426 134.701C329.417 131.092 325.792 126.689 323.552 121.493C321.443 116.296 320.388 109.944 320.388 102.438C320.388 88.7245 324.804 78.3311 333.635 71.2578C342.597 64.0402 355.844 60.4314 373.374 60.4314C380.359 60.4314 387.543 61.081 394.924 62.3802C402.437 63.6793 408.5 65.1229 413.113 66.7107V100.489C406.918 97.7465 400.987 95.7978 395.319 94.643C389.652 93.4881 384.314 92.9107 379.305 92.9107C373.506 92.9107 368.563 93.416 364.477 94.4264C360.391 95.4369 358.348 98.0353 358.348 102.221C358.348 105.83 360.061 108.501 363.488 110.233C367.047 111.821 373.308 113.914 382.271 116.512C392.683 119.544 400.591 123.225 405.995 127.555C411.531 131.886 415.288 136.938 417.265 142.712C419.242 148.342 420.23 154.766 420.23 161.983C420.23 174.686 415.749 184.936 406.786 192.731C397.824 200.381 384.248 204.207 366.059 204.207Z"/>
<path d="M434.008 202.041V62.5967H470.188L501.821 133.402L533.257 62.5967H569.239V202.041H532.071V132.319L511.707 178.223H491.738L471.177 132.319V202.041H434.008Z"/>
<path fill-rule="evenodd" clip-rule="evenodd" d="M631.994 62.5967H671.338L720.172 202.041H681.421L670.745 172.377H632.39L621.911 202.041H583.161L631.994 62.5967ZM660.848 128.903L651.547 102.438L646.161 117.763L651.567 102.221L660.848 128.903Z"/>
<path d="M734.044 62.5967H771.212V170.861H828.547V202.041H734.044V62.5967Z"/>
<path d="M838.496 62.5967H875.665V170.861H933V202.041H838.496V62.5967Z"/>
<path d="M264.042 136C264.042 208.349 206.949 267 136.521 267C66.0931 267 9 208.349 9 136C9 63.6507 66.0931 5 136.521 5C206.949 5 264.042 63.6507 264.042 136Z"/>
<path d="M129.918 217.415C120.493 217.415 111.577 216.621 103.168 215.033C94.7587 213.286 87.5819 210.905 81.6375 207.888V170.969C88.1618 174.304 95.4111 177.003 103.385 179.068C111.359 181.132 118.826 182.164 125.785 182.164C133.035 182.164 138.472 181.529 142.096 180.258C145.866 178.829 147.751 175.733 147.751 170.969C147.751 167.635 146.663 165.015 144.489 163.109C142.459 161.204 139.197 159.457 134.702 157.869C130.352 156.282 124.626 154.297 117.521 151.915C108.097 148.58 100.631 144.928 95.1211 140.959C89.6117 136.989 85.6246 132.146 83.1598 126.429C80.8401 120.713 79.6802 113.726 79.6802 105.469C79.6802 90.3846 84.5372 78.9518 94.2512 71.1712C104.11 63.2318 118.681 59.2621 137.964 59.2621C145.648 59.2621 153.55 59.9767 161.669 61.4058C169.933 62.8349 176.603 64.4227 181.677 66.1694V103.326C174.863 100.309 168.339 98.1652 162.104 96.8949C155.87 95.6246 149.998 94.9894 144.489 94.9894C138.109 94.9894 132.672 95.5452 128.178 96.6567C123.683 97.7682 121.436 100.626 121.436 105.231C121.436 109.201 123.321 112.139 127.09 114.044C131.005 115.791 137.892 118.093 147.751 120.951C159.204 124.286 167.904 128.335 173.848 133.099C179.937 137.862 184.069 143.42 186.244 149.771C188.419 155.964 189.506 163.03 189.506 170.969C189.506 184.943 184.577 196.217 174.718 204.791C164.859 213.207 149.925 217.415 129.918 217.415Z"/>
</mask>
<path d="M260.088 136C260.088 208.349 203.88 267 134.544 267C65.2079 267 9 208.349 9 136C9 63.6507 65.2079 5 134.544 5C203.88 5 260.088 63.6507 260.088 136Z" fill="#DF231D"/>
<path d="M366.059 204.207C357.491 204.207 349.385 203.485 341.741 202.041C334.096 200.453 327.572 198.288 322.168 195.545V161.983C328.099 165.015 334.689 167.469 341.938 169.345C349.188 171.222 355.976 172.16 362.302 172.16C368.892 172.16 373.835 171.583 377.13 170.428C380.557 169.129 382.271 166.314 382.271 161.983C382.271 158.952 381.282 156.57 379.305 154.838C377.46 153.106 374.494 151.518 370.408 150.074C366.454 148.631 361.248 146.826 354.789 144.661C346.222 141.63 339.434 138.31 334.426 134.701C329.417 131.092 325.792 126.689 323.552 121.493C321.443 116.296 320.388 109.944 320.388 102.438C320.388 88.7245 324.804 78.3311 333.635 71.2578C342.597 64.0402 355.844 60.4314 373.374 60.4314C380.359 60.4314 387.543 61.081 394.924 62.3802C402.437 63.6793 408.5 65.1229 413.113 66.7107V100.489C406.918 97.7465 400.987 95.7978 395.319 94.643C389.652 93.4881 384.314 92.9107 379.305 92.9107C373.506 92.9107 368.563 93.416 364.477 94.4264C360.391 95.4369 358.348 98.0353 358.348 102.221C358.348 105.83 360.061 108.501 363.488 110.233C367.047 111.821 373.308 113.914 382.271 116.512C392.683 119.544 400.591 123.225 405.995 127.555C411.531 131.886 415.288 136.938 417.265 142.712C419.242 148.342 420.23 154.766 420.23 161.983C420.23 174.686 415.749 184.936 406.786 192.731C397.824 200.381 384.248 204.207 366.059 204.207Z" fill="#DF231D"/>
<path d="M434.008 202.041V62.5967H470.188L501.821 133.402L533.257 62.5967H569.239V202.041H532.071V132.319L511.707 178.223H491.738L471.177 132.319V202.041H434.008Z" fill="#DF231D"/>
<path fill-rule="evenodd" clip-rule="evenodd" d="M631.994 62.5967H671.338L720.172 202.041H681.421L670.745 172.377H632.39L621.911 202.041H583.161L631.994 62.5967ZM660.848 128.903L651.547 102.438L646.161 117.763L651.567 102.221L660.848 128.903Z" fill="#DF231D"/>
<path d="M734.044 62.5967H771.212V170.861H828.547V202.041H734.044V62.5967Z" fill="#DF231D"/>
<path d="M838.496 62.5967H875.665V170.861H933V202.041H838.496V62.5967Z" fill="#DF231D"/>
<path d="M264.042 136C264.042 208.349 206.949 267 136.521 267C66.0931 267 9 208.349 9 136C9 63.6507 66.0931 5 136.521 5C206.949 5 264.042 63.6507 264.042 136Z" fill="#044FAC"/>
<path d="M129.918 217.415C120.493 217.415 111.577 216.621 103.168 215.033C94.7587 213.286 87.5819 210.905 81.6375 207.888V170.969C88.1618 174.304 95.4111 177.003 103.385 179.068C111.359 181.132 118.826 182.164 125.785 182.164C133.035 182.164 138.472 181.529 142.096 180.258C145.866 178.829 147.751 175.733 147.751 170.969C147.751 167.635 146.663 165.015 144.489 163.109C142.459 161.204 139.197 159.457 134.702 157.869C130.352 156.282 124.626 154.297 117.521 151.915C108.097 148.58 100.631 144.928 95.1211 140.959C89.6117 136.989 85.6246 132.146 83.1598 126.429C80.8401 120.713 79.6802 113.726 79.6802 105.469C79.6802 90.3846 84.5372 78.9518 94.2512 71.1712C104.11 63.2318 118.681 59.2621 137.964 59.2621C145.648 59.2621 153.55 59.9767 161.669 61.4058C169.933 62.8349 176.603 64.4227 181.677 66.1694V103.326C174.863 100.309 168.339 98.1652 162.104 96.8949C155.87 95.6246 149.998 94.9894 144.489 94.9894C138.109 94.9894 132.672 95.5452 128.178 96.6567C123.683 97.7682 121.436 100.626 121.436 105.231C121.436 109.201 123.321 112.139 127.09 114.044C131.005 115.791 137.892 118.093 147.751 120.951C159.204 124.286 167.904 128.335 173.848 133.099C179.937 137.862 184.069 143.42 186.244 149.771C188.419 155.964 189.506 163.03 189.506 170.969C189.506 184.943 184.577 196.217 174.718 204.791C164.859 213.207 149.925 217.415 129.918 217.415Z" fill="#DF231D"/>
<path d="M341.741 202.041L340.724 206.937L340.768 206.946L340.813 206.954L341.741 202.041ZM322.168 195.545H317.168V198.615L319.905 200.004L322.168 195.545ZM322.168 161.983L324.443 157.531L317.168 153.813V161.983H322.168ZM341.938 169.345L340.685 174.186L340.685 174.186L341.938 169.345ZM377.13 170.428L378.784 175.147L378.844 175.126L378.903 175.103L377.13 170.428ZM379.305 154.838L375.883 158.483L375.945 158.542L376.01 158.599L379.305 154.838ZM370.408 150.074L368.694 154.771L368.718 154.78L368.743 154.789L370.408 150.074ZM354.789 144.661L353.121 149.375L353.161 149.389L353.2 149.402L354.789 144.661ZM334.426 134.701L337.348 130.644L337.348 130.644L334.426 134.701ZM323.552 121.493L318.919 123.373L318.939 123.423L318.96 123.472L323.552 121.493ZM333.635 71.2578L336.76 75.1604L336.771 75.1521L333.635 71.2578ZM394.924 62.3802L394.057 67.3045L394.064 67.3058L394.072 67.307L394.924 62.3802ZM413.113 66.7107H418.113V63.1439L414.74 61.983L413.113 66.7107ZM413.113 100.489L411.089 105.061L418.113 108.171V100.489H413.113ZM395.319 94.643L394.321 99.5423L394.321 99.5423L395.319 94.643ZM363.488 110.233L361.233 114.695L361.341 114.75L361.451 114.799L363.488 110.233ZM382.271 116.512L383.668 111.712L383.663 111.71L382.271 116.512ZM405.995 127.555L402.869 131.457L402.892 131.475L402.915 131.494L405.995 127.555ZM417.265 142.712L412.534 144.332L412.541 144.351L412.547 144.369L417.265 142.712ZM406.786 192.731L410.032 196.533L410.05 196.518L410.067 196.503L406.786 192.731ZM434.008 62.5967V57.5967H429.008V62.5967H434.008ZM434.008 202.041H429.008V207.041H434.008V202.041ZM470.188 62.5967L474.753 60.5571L473.431 57.5967H470.188V62.5967ZM501.821 133.402L497.256 135.441L501.836 145.691L506.391 135.431L501.821 133.402ZM533.257 62.5967V57.5967H530.006L528.687 60.5678L533.257 62.5967ZM569.239 62.5967H574.239V57.5967H569.239V62.5967ZM569.239 202.041V207.041H574.239V202.041H569.239ZM532.071 202.041H527.071V207.041H532.071V202.041ZM532.071 132.319H537.071L527.5 130.291L532.071 132.319ZM511.707 178.223V183.223H514.959L516.277 180.251L511.707 178.223ZM491.738 178.223L487.175 180.267L488.499 183.223H491.738V178.223ZM471.177 132.319L475.74 130.275L466.177 132.319H471.177ZM471.177 202.041V207.041H476.177V202.041H471.177ZM671.338 62.5967L676.057 60.9441L674.885 57.5967H671.338V62.5967ZM631.994 62.5967V57.5967H628.448L627.275 60.9441L631.994 62.5967ZM720.172 202.041V207.041H727.22L724.891 200.389L720.172 202.041ZM681.421 202.041L676.717 203.734L677.907 207.041H681.421V202.041ZM670.745 172.377L675.45 170.684L674.259 167.377H670.745V172.377ZM632.39 172.377V167.377H628.853L627.675 170.712L632.39 172.377ZM621.911 202.041V207.041H625.448L626.626 203.707L621.911 202.041ZM583.161 202.041L578.442 200.389L576.112 207.041H583.161V202.041ZM651.547 102.438L656.264 100.78L651.547 87.3578L646.83 100.78L651.547 102.438ZM660.848 128.903L656.131 130.561L665.571 127.26L660.848 128.903ZM646.161 117.763L641.439 116.121L650.879 119.421L646.161 117.763ZM651.567 102.221L656.29 100.579L651.567 87.0021L646.845 100.579L651.567 102.221ZM771.212 62.5967H776.212V57.5967H771.212V62.5967ZM734.044 62.5967V57.5967H729.044V62.5967H734.044ZM771.212 170.861H766.212V175.861H771.212V170.861ZM828.547 170.861H833.547V165.861H828.547V170.861ZM828.547 202.041V207.041H833.547V202.041H828.547ZM734.044 202.041H729.044V207.041H734.044V202.041ZM875.665 62.5967H880.665V57.5967H875.665V62.5967ZM838.496 62.5967V57.5967H833.496V62.5967H838.496ZM875.665 170.861H870.665V175.861H875.665V170.861ZM933 170.861H938V165.861H933V170.861ZM933 202.041V207.041H938V202.041H933ZM838.496 202.041H833.496V207.041H838.496V202.041ZM103.168 215.033L102.151 219.929L102.195 219.938L102.24 219.946L103.168 215.033ZM81.6375 207.888H76.6375V210.957L79.3746 212.346L81.6375 207.888ZM81.6375 170.969L83.913 166.517L76.6375 162.799V170.969H81.6375ZM103.385 179.068L102.132 183.908L102.132 183.908L103.385 179.068ZM142.096 180.258L143.75 184.977L143.81 184.956L143.869 184.934L142.096 180.258ZM144.489 163.109L141.066 166.755L141.129 166.814L141.194 166.87L144.489 163.109ZM134.702 157.869L132.987 162.566L133.012 162.575L133.036 162.584L134.702 157.869ZM117.521 151.915L115.853 156.628L115.893 156.642L115.932 156.656L117.521 151.915ZM95.1211 140.959L92.1982 145.015L92.1982 145.015L95.1211 140.959ZM83.1598 126.429L78.5268 128.31L78.5471 128.36L78.5685 128.409L83.1598 126.429ZM94.2512 71.1712L97.377 75.0737L97.3872 75.0655L94.2512 71.1712ZM161.669 61.4058L160.802 66.3301L160.81 66.3314L160.817 66.3326L161.669 61.4058ZM181.677 66.1694H186.677V62.6025L183.305 61.4417L181.677 66.1694ZM181.677 103.326L179.653 107.898L186.677 111.008V103.326H181.677ZM162.104 96.8949L161.106 101.794L161.106 101.794L162.104 96.8949ZM127.09 114.044L124.835 118.506L124.943 118.561L125.053 118.61L127.09 114.044ZM147.751 120.951L149.148 116.151L149.143 116.149L147.751 120.951ZM173.848 133.099L170.721 137L170.744 137.019L170.767 137.037L173.848 133.099ZM186.244 149.771L181.514 151.391L181.52 151.409L181.527 151.428L186.244 149.771ZM174.718 204.791L177.964 208.594L177.982 208.579L177.999 208.564L174.718 204.791ZM134.544 272C206.84 272 265.088 210.908 265.088 136H255.088C255.088 205.79 200.92 262 134.544 262V272ZM4 136C4 210.908 62.2481 272 134.544 272V262C68.1677 262 14 205.79 14 136H4ZM134.544 0C62.2481 0 4 61.0919 4 136H14C14 66.2095 68.1677 10 134.544 10V0ZM265.088 136C265.088 61.0919 206.84 0 134.544 0V10C200.92 10 255.088 66.2095 255.088 136H265.088ZM340.813 206.954C348.792 208.461 357.211 209.207 366.059 209.207V199.207C357.772 199.207 349.978 198.508 342.668 197.128L340.813 206.954ZM319.905 200.004C325.797 202.995 332.764 205.283 340.724 206.937L342.758 197.146C335.428 195.623 329.346 193.582 324.431 191.087L319.905 200.004ZM317.168 161.983V195.545H327.168V161.983H317.168ZM343.191 164.505C336.253 162.709 330.011 160.377 324.443 157.531L319.892 166.436C326.186 169.653 333.125 172.229 340.685 174.186L343.191 164.505ZM362.302 167.16C356.467 167.16 350.104 166.294 343.191 164.505L340.685 174.186C348.271 176.15 355.484 177.16 362.302 177.16V167.16ZM375.476 165.709C372.995 166.579 368.737 167.16 362.302 167.16V177.16C369.048 177.16 374.675 176.587 378.784 175.147L375.476 165.709ZM377.271 161.983C377.271 163.513 376.967 164.328 376.715 164.743C376.501 165.093 376.154 165.451 375.358 165.753L378.903 175.103C381.533 174.106 383.756 172.407 385.256 169.942C386.718 167.542 387.271 164.785 387.271 161.983H377.271ZM376.01 158.599C376.732 159.232 377.271 160.148 377.271 161.983H387.271C387.271 157.756 385.832 153.909 382.6 151.077L376.01 158.599ZM368.743 154.789C372.576 156.143 374.78 157.449 375.883 158.483L382.727 151.193C380.139 148.763 376.413 146.893 372.074 145.36L368.743 154.789ZM353.2 149.402C359.639 151.56 364.798 153.349 368.694 154.771L372.123 145.378C368.11 143.913 362.857 142.092 356.379 139.92L353.2 149.402ZM331.503 138.757C337.031 142.741 344.297 146.252 353.121 149.375L356.457 139.948C348.147 137.007 341.837 133.878 337.348 130.644L331.503 138.757ZM318.96 123.472C321.591 129.574 325.829 134.67 331.503 138.757L337.348 130.644C333.005 127.514 329.993 123.804 328.143 119.513L318.96 123.472ZM315.388 102.438C315.388 110.383 316.5 117.414 318.919 123.373L328.185 119.612C326.385 115.178 325.388 109.505 325.388 102.438H315.388ZM330.509 67.3553C320.241 75.58 315.388 87.563 315.388 102.438H325.388C325.388 89.886 329.367 81.0823 336.76 75.1603L330.509 67.3553ZM373.374 55.4314C355.272 55.4314 340.71 59.1405 330.499 67.3636L336.771 75.1521C344.485 68.9399 356.416 65.4314 373.374 65.4314V55.4314ZM395.791 57.4559C388.144 56.1099 380.67 55.4314 373.374 55.4314V65.4314C380.049 65.4314 386.942 66.052 394.057 67.3045L395.791 57.4559ZM414.74 61.983C409.775 60.2739 403.423 58.7757 395.776 57.4533L394.072 67.307C401.45 68.583 407.224 69.9718 411.486 71.4385L414.74 61.983ZM418.113 100.489V66.7107H408.113V100.489H418.113ZM394.321 99.5423C399.582 100.614 405.169 102.44 411.089 105.061L415.137 95.9173C408.667 93.053 402.392 90.9813 396.317 89.7436L394.321 99.5423ZM379.305 97.9107C383.931 97.9107 388.933 98.4444 394.321 99.5423L396.317 89.7436C390.371 88.5319 384.696 87.9107 379.305 87.9107V97.9107ZM365.677 99.2802C369.254 98.3956 373.77 97.9107 379.305 97.9107V87.9107C373.241 87.9107 367.871 88.4363 363.277 89.5727L365.677 99.2802ZM363.348 102.221C363.348 100.946 363.649 100.429 363.811 100.223C363.975 100.015 364.416 99.5922 365.677 99.2802L363.277 89.5727C360.452 90.2712 357.829 91.6529 355.95 94.0426C354.069 96.4352 353.348 99.3111 353.348 102.221H363.348ZM365.744 105.771C364.66 105.223 364.124 104.671 363.841 104.231C363.57 103.808 363.348 103.204 363.348 102.221H353.348C353.348 104.848 353.983 107.384 355.425 109.631C356.856 111.861 358.89 113.511 361.233 114.695L365.744 105.771ZM383.663 111.71C374.701 109.112 368.738 107.1 365.526 105.667L361.451 114.799C365.356 116.542 371.914 118.716 380.878 121.315L383.663 111.71ZM409.122 123.654C403 118.747 394.393 114.834 383.668 111.712L380.873 121.313C390.973 124.254 398.183 127.702 402.869 131.457L409.122 123.654ZM421.995 141.093C419.659 134.27 415.256 128.452 409.076 123.617L402.915 131.494C407.806 135.32 410.916 139.607 412.534 144.332L421.995 141.093ZM425.23 161.983C425.23 154.316 424.181 147.316 421.982 141.056L412.547 144.369C414.303 149.368 415.23 155.215 415.23 161.983H425.23ZM410.067 196.503C420.205 187.686 425.23 176.02 425.23 161.983H415.23C415.23 173.353 411.293 182.185 403.505 188.958L410.067 196.503ZM366.059 209.207C384.82 209.207 399.785 205.281 410.032 196.533L403.54 188.928C395.862 195.482 383.675 199.207 366.059 199.207V209.207ZM429.008 62.5967V202.041H439.008V62.5967H429.008ZM470.188 57.5967H434.008V67.5967H470.188V57.5967ZM506.387 131.362L474.753 60.5571L465.623 64.6362L497.256 135.441L506.387 131.362ZM528.687 60.5678L497.252 131.373L506.391 135.431L537.827 64.6256L528.687 60.5678ZM569.239 57.5967H533.257V67.5967H569.239V57.5967ZM574.239 202.041V62.5967H564.239V202.041H574.239ZM532.071 207.041H569.239V197.041H532.071V207.041ZM527.071 132.319V202.041H537.071V132.319H527.071ZM516.277 180.251L536.641 134.347L527.5 130.291L507.136 176.196L516.277 180.251ZM491.738 183.223H511.707V173.223H491.738V183.223ZM466.614 134.363L487.175 180.267L496.302 176.179L475.74 130.275L466.614 134.363ZM476.177 202.041V132.319H466.177V202.041H476.177ZM434.008 207.041H471.177V197.041H434.008V207.041ZM671.338 57.5967H631.994V67.5967H671.338V57.5967ZM724.891 200.389L676.057 60.9441L666.619 64.2493L715.453 203.694L724.891 200.389ZM681.421 207.041H720.172V197.041H681.421V207.041ZM666.04 174.07L676.717 203.734L686.126 200.348L675.45 170.684L666.04 174.07ZM632.39 177.377H670.745V167.377H632.39V177.377ZM626.626 203.707L637.104 174.042L627.675 170.712L617.197 200.376L626.626 203.707ZM583.161 207.041H621.911V197.041H583.161V207.041ZM627.275 60.9441L578.442 200.389L587.88 203.694L636.713 64.2493L627.275 60.9441ZM646.83 104.096L656.131 130.561L665.565 127.245L656.264 100.78L646.83 104.096ZM650.879 119.421L656.264 104.096L646.83 100.78L641.444 116.105L650.879 119.421ZM650.884 119.406L656.29 103.864L646.845 100.579L641.439 116.121L650.884 119.406ZM646.845 103.864L656.126 130.546L665.571 127.26L656.29 100.579L646.845 103.864ZM771.212 57.5967H734.044V67.5967H771.212V57.5967ZM776.212 170.861V62.5967H766.212V170.861H776.212ZM828.547 165.861H771.212V175.861H828.547V165.861ZM833.547 202.041V170.861H823.547V202.041H833.547ZM734.044 207.041H828.547V197.041H734.044V207.041ZM729.044 62.5967V202.041H739.044V62.5967H729.044ZM875.665 57.5967H838.496V67.5967H875.665V57.5967ZM880.665 170.861V62.5967H870.665V170.861H880.665ZM933 165.861H875.665V175.861H933V165.861ZM938 202.041V170.861H928V202.041H938ZM838.496 207.041H933V197.041H838.496V207.041ZM833.496 62.5967V202.041H843.496V62.5967H833.496ZM259.042 136C259.042 205.716 204.061 262 136.521 262V272C209.836 272 269.042 210.983 269.042 136H259.042ZM136.521 262C68.9805 262 14 205.716 14 136H4C4 210.983 63.2056 272 136.521 272V262ZM14 136C14 66.2844 68.9805 10 136.521 10V0C63.2056 0 4 61.017 4 136H14ZM136.521 10C204.061 10 259.042 66.2844 259.042 136H269.042C269.042 61.017 209.836 0 136.521 0V10ZM129.918 212.415C120.774 212.415 112.17 211.645 104.096 210.12L102.24 219.946C110.984 221.597 120.213 222.415 129.918 222.415V212.415ZM104.185 210.138C96.0908 208.456 89.3563 206.198 83.9004 203.429L79.3746 212.346C85.8075 215.611 93.4265 218.116 102.151 219.929L104.185 210.138ZM86.6375 207.888V170.969H76.6375V207.888H86.6375ZM79.362 175.422C86.2492 178.942 93.8471 181.763 102.132 183.908L104.638 174.227C96.9751 172.243 90.0744 169.666 83.913 166.517L79.362 175.422ZM102.132 183.908C110.443 186.059 118.335 187.164 125.785 187.164V177.164C119.318 177.164 112.276 176.204 104.638 174.227L102.132 183.908ZM125.785 187.164C133.19 187.164 139.312 186.533 143.75 184.977L140.443 175.54C137.631 176.525 132.879 177.164 125.785 177.164V187.164ZM143.869 184.934C146.671 183.872 149.022 182.07 150.608 179.464C152.155 176.923 152.751 173.987 152.751 170.969H142.751C142.751 172.715 142.404 173.709 142.066 174.265C141.767 174.755 141.291 175.216 140.324 175.583L143.869 184.934ZM152.751 170.969C152.751 166.439 151.213 162.354 147.784 159.349L141.194 166.87C142.113 167.676 142.751 168.831 142.751 170.969H152.751ZM147.911 159.464C145.138 156.861 141.115 154.832 136.368 153.155L133.036 162.584C137.278 164.082 139.779 165.547 141.066 166.755L147.911 159.464ZM136.417 153.173C132.008 151.563 126.235 149.563 119.111 147.174L115.932 156.656C123.016 159.031 128.697 161 132.987 162.566L136.417 153.173ZM119.189 147.201C110.023 143.958 103.033 140.497 98.044 136.902L92.1982 145.015C98.2277 149.36 106.172 153.203 115.853 156.628L119.189 147.201ZM98.044 136.902C93.1995 133.411 89.8257 129.261 87.7512 124.45L78.5685 128.409C81.4235 135.031 86.0238 140.566 92.1982 145.015L98.044 136.902ZM87.7929 124.549C85.7824 119.595 84.6802 113.288 84.6802 105.469H74.6802C74.6802 114.165 75.8978 121.831 78.5268 128.31L87.7929 124.549ZM84.6802 105.469C84.6802 91.5461 89.1004 81.703 97.377 75.0737L91.1254 67.2687C79.974 76.2007 74.6802 89.2231 74.6802 105.469H84.6802ZM97.3872 75.0655C105.998 68.1315 119.253 64.2621 137.964 64.2621V54.2621C118.109 54.2621 102.223 58.3321 91.1152 67.277L97.3872 75.0655ZM137.964 64.2621C145.338 64.2621 152.949 64.9477 160.802 66.3301L162.536 56.4815C154.151 55.0056 145.959 54.2621 137.964 54.2621V64.2621ZM160.817 66.3326C168.947 67.7385 175.327 69.2717 180.05 70.8972L183.305 61.4417C177.878 59.5738 170.92 57.9312 162.521 56.4789L160.817 66.3326ZM176.677 66.1694V103.326H186.677V66.1694H176.677ZM183.701 98.7538C176.612 95.6152 169.744 93.3487 163.102 91.9955L161.106 101.794C166.934 102.982 173.113 105.002 179.653 107.898L183.701 98.7538ZM163.102 91.9955C156.589 90.6683 150.38 89.9894 144.489 89.9894V99.9894C149.616 99.9894 155.151 100.581 161.106 101.794L163.102 91.9955ZM144.489 89.9894C137.845 89.9894 131.981 90.5655 126.977 91.8029L129.378 101.51C133.364 100.525 138.373 99.9894 144.489 99.9894V89.9894ZM126.977 91.8029C123.949 92.5519 121.172 94.0239 119.191 96.5435C117.207 99.066 116.436 102.112 116.436 105.231H126.436C126.436 103.746 126.788 103.06 127.052 102.724C127.318 102.386 127.912 101.873 129.378 101.51L126.977 91.8029ZM116.436 105.231C116.436 108.038 117.113 110.731 118.641 113.112C120.158 115.475 122.321 117.236 124.835 118.506L129.346 109.582C128.09 108.947 127.426 108.286 127.058 107.712C126.701 107.155 126.436 106.394 126.436 105.231H116.436ZM125.053 118.61C129.314 120.511 136.498 122.895 146.358 125.753L149.143 116.149C139.285 113.291 132.696 111.07 129.128 109.478L125.053 118.61ZM146.353 125.752C157.494 128.995 165.495 132.812 170.721 137L176.975 129.197C170.312 123.857 160.915 119.576 149.148 116.151L146.353 125.752ZM170.767 137.037C176.212 141.296 179.698 146.088 181.514 151.391L190.975 148.152C188.441 140.751 183.662 134.428 176.929 129.16L170.767 137.037ZM181.527 151.428C183.48 156.99 184.506 163.48 184.506 170.969H194.506C194.506 162.58 193.358 154.938 190.962 148.115L181.527 151.428ZM184.506 170.969C184.506 183.61 180.121 193.466 171.437 201.018L177.999 208.564C189.033 198.968 194.506 186.276 194.506 170.969H184.506ZM171.472 200.988C162.897 208.308 149.353 212.415 129.918 212.415V222.415C150.498 222.415 166.821 218.106 177.964 208.594L171.472 200.988Z" fill="#F89B1B" mask="url(#path-1-outside-1_25_16)"/>
</g>
<defs>
<filter id="filter0_d_25_16" x="0" y="0" width="942" height="280" filterUnits="userSpaceOnUse" color-interpolation-filters="sRGB">
<feFlood flood-opacity="0" result="BackgroundImageFix"/>
<feColorMatrix in="SourceAlpha" type="matrix" values="0 0 0 0 0 0 0 0 0 0 0 0 0 0 0 0 0 0 127 0" result="hardAlpha"/>
<feOffset dy="4"/>
<feGaussianBlur stdDeviation="2"/>
<feComposite in2="hardAlpha" operator="out"/>
<feColorMatrix type="matrix" values="0 0 0 0 0 0 0 0 0 0 0 0 0 0 0 0 0 0 0.25 0"/>
<feBlend mode="normal" in2="BackgroundImageFix" result="effect1_dropShadow_25_16"/>
<feBlend mode="normal" in="SourceGraphic" in2="effect1_dropShadow_25_16" result="shape"/>
</filter>
</defs>
</svg>
